{
	"asset":{
		"generator":"Khronos glTF Blender I/O v3.5.30",
		"version":"2.0"
	},
	"scene":0,
	"scenes":[
		{
			"name":"Scene",
			"nodes":[
				0
			]
		}
	],
	"nodes":[
		{
			"mesh":0,
			"name":"Plane",
			"rotation":[
				0,
				0,
				-0.7071068286895752,
				0.7071068286895752
			],
			"scale":[
				0.09474539756774902,
				0.09474539756774902,
				0.09474539756774902
			],
			"translation":[
				-0.36916205286979675,
				0.006587296724319458,
				0
			]
		}
	],
	"materials":[
		{
			"doubleSided":true,
			"name":"shirt",
			"pbrMetallicRoughness":{
				"baseColorTexture":{
					"index":0
				},
				"metallicFactor":0,
				"metallicRoughnessTexture":{
					"index":1
				}
			}
		}
	],
	"meshes":[
		{
			"name":"Plane.008",
			"primitives":[
				{
					"attributes":{
						"POSITION":0,
						"TEXCOORD_0":1,
						"NORMAL":2
					},
					"indices":3,
					"material":0
				}
			]
		}
	],
	"textures":[
		{
			"sampler":0,
			"source":0
		},
		{
			"sampler":0,
			"source":1
		}
	],
	"images":[
		{
			"bufferView":4,
			"mimeType":"image/jpeg",
			"name":"texture.png"
		},
		{
			"bufferView":5,
			"mimeType":"image/png",
			"name":"Image"
		}
	],
	"accessors":[
		{
			"bufferView":0,
			"componentType":5126,
			"count":1525,
			"max":[
				6.349949359893799,
				3.5702290534973145,
				5.363754749298096
			],
			"min":[
				-5.215815544128418,
				-2.0632376670837402,
				-5.363754749298096
			],
			"type":"VEC3"
		},
		{
			"bufferView":1,
			"componentType":5126,
			"count":1525,
			"type":"VEC2"
		},
		{
			"bufferView":2,
			"componentType":5126,
			"count":1525,
			"type":"VEC3"
		},
		{
			"bufferView":3,
			"componentType":5123,
			"count":6264,
			"type":"SCALAR"
		}
	],
	"bufferViews":[
		{
			"buffer":0,
			"byteLength":18300,
			"byteOffset":0,
			"target":34962
		},
		{
			"buffer":0,
			"byteLength":12200,
			"byteOffset":18300,
			"target":34962
		},
		{
			"buffer":0,
			"byteLength":18300,
			"byteOffset":30500,
			"target":34962
		},
		{
			"buffer":0,
			"byteLength":12528,
			"byteOffset":48800,
			"target":34963
		},
		{
			"buffer":0,
			"byteLength":103686,
			"byteOffset":61328
		},
		{
			"buffer":0,
			"byteLength":90,
			"byteOffset":165016
		}
	],
	"samplers":[
		{
			"magFilter":9729,
			"minFilter":9987
		}
	],
	"buffers":[
		{
			"byteLength":165108,
			"uri":"data:application/octet-stream;base64,"
		}
	]
}
