{
	"asset":{
		"generator":"Khronos glTF Blender I/O v3.5.30",
		"version":"2.0"
	},
	"scene":0,
	"scenes":[
		{
			"name":"Scene",
			"nodes":[
				0
			]
		}
	],
	"nodes":[
		{
			"mesh":0,
			"name":"Plane",
			"rotation":[
				0,
				0,
				-0.7071068286895752,
				0.7071068286895752
			],
			"scale":[
				0.09474539756774902,
				0.09474539756774902,
				0.09474539756774902
			],
			"translation":[
				-0.058872468769550323,
				0.044030554592609406,
				-0.0008678947342559695
			]
		}
	],
	"materials":[
		{
			"doubleSided":true,
			"name":"shirt",
			"pbrMetallicRoughness":{
				"baseColorTexture":{
					"index":0
				},
				"metallicFactor":0,
				"metallicRoughnessTexture":{
					"index":1
				}
			}
		}
	],
	"meshes":[
		{
			"name":"Plane.008",
			"primitives":[
				{
					"attributes":{
						"POSITION":0,
						"TEXCOORD_0":1,
						"NORMAL":2
					},
					"indices":3,
					"material":0
				}
			]
		}
	],
	"textures":[
		{
			"sampler":0,
			"source":0
		},
		{
			"sampler":0,
			"source":1
		}
	],
	"images":[
		{
			"bufferView":4,
			"mimeType":"image/png",
			"name":"Bez nazwy-2"
		},
		{
			"bufferView":5,
			"mimeType":"image/png",
			"name":"Image"
		}
	],
	"accessors":[
		{
			"bufferView":0,
			"componentType":5126,
			"count":2123,
			"max":[
				6.007341384887695,
				3.560434579849243,
				5.3637542724609375
			],
			"min":[
				-5.5584235191345215,
				-2.0730321407318115,
				-5.363755226135254
			],
			"type":"VEC3"
		},
		{
			"bufferView":1,
			"componentType":5126,
			"count":2123,
			"type":"VEC2"
		},
		{
			"bufferView":2,
			"componentType":5126,
			"count":2123,
			"type":"VEC3"
		},
		{
			"bufferView":3,
			"componentType":5123,
			"count":6264,
			"type":"SCALAR"
		}
	],
	"bufferViews":[
		{
			"buffer":0,
			"byteLength":25476,
			"byteOffset":0,
			"target":34962
		},
		{
			"buffer":0,
			"byteLength":16984,
			"byteOffset":25476,
			"target":34962
		},
		{
			"buffer":0,
			"byteLength":25476,
			"byteOffset":42460,
			"target":34962
		},
		{
			"buffer":0,
			"byteLength":12528,
			"byteOffset":67936,
			"target":34963
		},
		{
			"buffer":0,
			"byteLength":48984,
			"byteOffset":80464
		},
		{
			"buffer":0,
			"byteLength":90,
			"byteOffset":129448
		}
	],
	"samplers":[
		{
			"magFilter":9729,
			"minFilter":9987
		}
	],
	"buffers":[
		{
			"byteLength":129540,
			"uri":"data:application/octet-stream;base64,"
		}
	]
}
