{
	"asset":{
		"generator":"Khronos glTF Blender I/O v3.5.30",
		"version":"2.0"
	},
	"scene":0,
	"scenes":[
		{
			"name":"Scene",
			"nodes":[
				0,
				1,
				2
			]
		}
	],
	"nodes":[
		{
			"mesh":0,
			"name":"darts_obj",
			"rotation":[
				0.4757700264453888,
				0.5323750972747803,
				0.5499394536018372,
				0.43334323167800903
			],
			"scale":[
				0.01327583473175764,
				0.013275835663080215,
				0.01327583473175764
			],
			"translation":[
				-8.483050346374512,
				6.064999103546143,
				0.5071737766265869
			]
		},
		{
			"mesh":1,
			"name":"darts_obj.001",
			"rotation":[
				0.4757700264453888,
				0.5323750972747803,
				0.5499394536018372,
				0.43334323167800903
			],
			"scale":[
				0.01327583473175764,
				0.013275835663080215,
				0.01327583473175764
			],
			"translation":[
				-8.483050346374512,
				5.1356682777404785,
				-0.4933590888977051
			]
		},
		{
			"mesh":2,
			"name":"darts_obj.002",
			"rotation":[
				0.4757700264453888,
				0.5323750972747803,
				0.5499394536018372,
				0.43334323167800903
			],
			"scale":[
				0.01327583473175764,
				0.013275835663080215,
				0.01327583473175764
			],
			"translation":[
				-8.483050346374512,
				6.94196891784668,
				1.4031593799591064
			]
		}
	],
	"materials":[
		{
			"doubleSided":true,
			"name":"Material.001",
			"pbrMetallicRoughness":{
				"baseColorTexture":{
					"index":0
				},
				"metallicFactor":0,
				"roughnessFactor":0.5
			}
		},
		{
			"doubleSided":true,
			"name":"Material.002",
			"pbrMetallicRoughness":{
				"baseColorTexture":{
					"index":1
				},
				"metallicFactor":0,
				"roughnessFactor":0.5
			}
		},
		{
			"doubleSided":true,
			"name":"Material.003",
			"pbrMetallicRoughness":{
				"baseColorTexture":{
					"index":2
				},
				"metallicFactor":0,
				"roughnessFactor":0.5
			}
		}
	],
	"meshes":[
		{
			"name":"darts_obj",
			"primitives":[
				{
					"attributes":{
						"POSITION":0,
						"TEXCOORD_0":1,
						"NORMAL":2
					},
					"indices":3,
					"material":0
				}
			]
		},
		{
			"name":"darts_obj.001",
			"primitives":[
				{
					"attributes":{
						"POSITION":4,
						"TEXCOORD_0":5,
						"NORMAL":6
					},
					"indices":3,
					"material":1
				}
			]
		},
		{
			"name":"darts_obj.002",
			"primitives":[
				{
					"attributes":{
						"POSITION":7,
						"TEXCOORD_0":8,
						"NORMAL":9
					},
					"indices":3,
					"material":2
				}
			]
		}
	],
	"textures":[
		{
			"sampler":0,
			"source":0
		},
		{
			"sampler":0,
			"source":0
		},
		{
			"sampler":0,
			"source":0
		}
	],
	"images":[
		{
			"bufferView":4,
			"mimeType":"image/jpeg",
			"name":"flame (1)"
		}
	],
	"accessors":[
		{
			"bufferView":0,
			"componentType":5126,
			"count":4765,
			"max":[
				-430.07354736328125,
				33.85689163208008,
				555.4417114257812
			],
			"min":[
				-762.6680297851562,
				-14.355049133300781,
				503.5438537597656
			],
			"type":"VEC3"
		},
		{
			"bufferView":1,
			"componentType":5126,
			"count":4765,
			"type":"VEC2"
		},
		{
			"bufferView":2,
			"componentType":5126,
			"count":4765,
			"type":"VEC3"
		},
		{
			"bufferView":3,
			"componentType":5123,
			"count":14016,
			"type":"SCALAR"
		},
		{
			"bufferView":5,
			"componentType":5126,
			"count":4765,
			"max":[
				-430.07354736328125,
				33.85689163208008,
				555.4417114257812
			],
			"min":[
				-762.6680297851562,
				-14.355049133300781,
				503.5438537597656
			],
			"type":"VEC3"
		},
		{
			"bufferView":6,
			"componentType":5126,
			"count":4765,
			"type":"VEC2"
		},
		{
			"bufferView":7,
			"componentType":5126,
			"count":4765,
			"type":"VEC3"
		},
		{
			"bufferView":8,
			"componentType":5126,
			"count":4765,
			"max":[
				-430.07354736328125,
				33.85689163208008,
				555.4417114257812
			],
			"min":[
				-762.6680297851562,
				-14.355049133300781,
				503.5438537597656
			],
			"type":"VEC3"
		},
		{
			"bufferView":9,
			"componentType":5126,
			"count":4765,
			"type":"VEC2"
		},
		{
			"bufferView":10,
			"componentType":5126,
			"count":4765,
			"type":"VEC3"
		}
	],
	"bufferViews":[
		{
			"buffer":0,
			"byteLength":57180,
			"byteOffset":0,
			"target":34962
		},
		{
			"buffer":0,
			"byteLength":38120,
			"byteOffset":57180,
			"target":34962
		},
		{
			"buffer":0,
			"byteLength":57180,
			"byteOffset":95300,
			"target":34962
		},
		{
			"buffer":0,
			"byteLength":28032,
			"byteOffset":152480,
			"target":34963
		},
		{
			"buffer":0,
			"byteLength":121163,
			"byteOffset":180512
		},
		{
			"buffer":0,
			"byteLength":57180,
			"byteOffset":301676,
			"target":34962
		},
		{
			"buffer":0,
			"byteLength":38120,
			"byteOffset":358856,
			"target":34962
		},
		{
			"buffer":0,
			"byteLength":57180,
			"byteOffset":396976,
			"target":34962
		},
		{
			"buffer":0,
			"byteLength":57180,
			"byteOffset":454156,
			"target":34962
		},
		{
			"buffer":0,
			"byteLength":38120,
			"byteOffset":511336,
			"target":34962
		},
		{
			"buffer":0,
			"byteLength":57180,
			"byteOffset":549456,
			"target":34962
		}
	],
	"samplers":[
		{
			"magFilter":9729,
			"minFilter":9987
		}
	],
	"buffers":[
		{
			"byteLength":606636,
			"uri":"data:application/octet-stream;base64,"
		}
	]
}
