{
  "accessors": [
    {
      "bufferView": 2,
      "componentType": 5126,
      "count": 486,
      "max": [
        1.0,
        1.0,
        1.0
      ],
      "min": [
        -1.0,
        -0.7963491678237915,
        -1.0
      ],
      "type": "VEC3"
    },
    {
      "bufferView": 2,
      "byteOffset": 5832,
      "componentType": 5126,
      "count": 486,
      "max": [
        0.9990057349205017,
        1.0,
        0.9990057945251465
      ],
      "min": [
        -0.9990057349205017,
        -1.0,
        -0.9990057945251465
      ],
      "type": "VEC3"
    },
    {
      "bufferView": 1,
      "componentType": 5126,
      "count": 486,
      "max": [
        1.0,
        1.0
      ],
      "min": [
        0.0,
        0.0
      ],
      "type": "VEC2"
    },
    {
      "bufferView": 0,
      "componentType": 5125,
      "count": 2079,
      "type": "SCALAR"
    },
    {
      "bufferView": 2,
      "byteOffset": 11664,
      "componentType": 5126,
      "count": 1253,
      "max": [
        1.0000001192092896,
        23.339252471923828,
        1.0000001192092896
      ],
      "min": [
        -1.0000001192092896,
        -4.102331638336182,
        -1.0000001192092896
      ],
      "type": "VEC3"
    },
    {
      "bufferView": 2,
      "byteOffset": 26700,
      "componentType": 5126,
      "count": 1253,
      "max": [
        1.0,
        1.0,
        1.0
      ],
      "min": [
        -1.0,
        -1.272322869283471e-08,
        -1.0
      ],
      "type": "VEC3"
    },
    {
      "bufferView": 1,
      "byteOffset": 3888,
      "componentType": 5126,
      "count": 1253,
      "max": [
        1.0000001192092896,
        1.0000001192092896
      ],
      "min": [
        0.0,
        0.5000000596046448
      ],
      "type": "VEC2"
    },
    {
      "bufferView": 0,
      "byteOffset": 8316,
      "componentType": 5125,
      "count": 5376,
      "type": "SCALAR"
    },
    {
      "bufferView": 2,
      "byteOffset": 41736,
      "componentType": 5126,
      "count": 8255,
      "max": [
        1.1044739484786987,
        1.0,
        1.1044739484786987
      ],
      "min": [
        -1.1044739484786987,
        -1.0,
        -1.1044739484786987
      ],
      "type": "VEC3"
    },
    {
      "bufferView": 2,
      "byteOffset": 140796,
      "componentType": 5126,
      "count": 8255,
      "max": [
        1.0,
        1.0,
        1.0
      ],
      "min": [
        -1.0,
        -1.0,
        -1.0
      ],
      "type": "VEC3"
    },
    {
      "bufferView": 1,
      "byteOffset": 13912,
      "componentType": 5126,
      "count": 8255,
      "max": [
        1.0000001192092896,
        1.0000001192092896
      ],
      "min": [
        0.0,
        0.01000000536441803
      ],
      "type": "VEC2"
    },
    {
      "bufferView": 0,
      "byteOffset": 29820,
      "componentType": 5125,
      "count": 47616,
      "type": "SCALAR"
    },
    {
      "bufferView": 2,
      "byteOffset": 239856,
      "componentType": 5126,
      "count": 206,
      "max": [
        1.563295602798462,
        1.6818482606595353e-08,
        2.3391058444976807
      ],
      "min": [
        -1.563295602798462,
        0.0,
        -1.0
      ],
      "type": "VEC3"
    },
    {
      "bufferView": 2,
      "byteOffset": 242328,
      "componentType": 5126,
      "count": 206,
      "max": [
        2.8748026181801833e-08,
        1.0,
        6.569978339143745e-09
      ],
      "min": [
        -2.874803506358603e-08,
        1.0,
        -5.309451989177205e-09
      ],
      "type": "VEC3"
    },
    {
      "bufferView": 1,
      "byteOffset": 79952,
      "componentType": 5126,
      "count": 206,
      "max": [
        0.0,
        0.0
      ],
      "min": [
        0.0,
        0.0
      ],
      "type": "VEC2"
    },
    {
      "bufferView": 0,
      "byteOffset": 220284,
      "componentType": 5125,
      "count": 816,
      "type": "SCALAR"
    },
    {
      "bufferView": 2,
      "byteOffset": 244800,
      "componentType": 5126,
      "count": 206,
      "max": [
        1.563295602798462,
        1.6818482606595353e-08,
        2.3391058444976807
      ],
      "min": [
        -1.563295602798462,
        0.0,
        -1.0
      ],
      "type": "VEC3"
    },
    {
      "bufferView": 2,
      "byteOffset": 247272,
      "componentType": 5126,
      "count": 206,
      "max": [
        2.8748026181801833e-08,
        1.0,
        6.569978339143745e-09
      ],
      "min": [
        -2.874803506358603e-08,
        1.0,
        -5.309451989177205e-09
      ],
      "type": "VEC3"
    },
    {
      "bufferView": 1,
      "byteOffset": 81600,
      "componentType": 5126,
      "count": 206,
      "max": [
        0.0,
        0.0
      ],
      "min": [
        0.0,
        0.0
      ],
      "type": "VEC2"
    },
    {
      "bufferView": 0,
      "byteOffset": 223548,
      "componentType": 5125,
      "count": 816,
      "type": "SCALAR"
    },
    {
      "bufferView": 2,
      "byteOffset": 249744,
      "componentType": 5126,
      "count": 486,
      "max": [
        1.0,
        1.0,
        1.0
      ],
      "min": [
        -1.0,
        -0.7963491678237915,
        -1.0
      ],
      "type": "VEC3"
    },
    {
      "bufferView": 2,
      "byteOffset": 255576,
      "componentType": 5126,
      "count": 486,
      "max": [
        0.9990057349205017,
        1.0,
        0.9990057945251465
      ],
      "min": [
        -0.9990057349205017,
        -1.0,
        -0.9990057945251465
      ],
      "type": "VEC3"
    },
    {
      "bufferView": 1,
      "byteOffset": 83248,
      "componentType": 5126,
      "count": 486,
      "max": [
        1.0,
        1.0
      ],
      "min": [
        0.0,
        0.0
      ],
      "type": "VEC2"
    },
    {
      "bufferView": 0,
      "byteOffset": 226812,
      "componentType": 5125,
      "count": 2079,
      "type": "SCALAR"
    },
    {
      "bufferView": 2,
      "byteOffset": 261408,
      "componentType": 5126,
      "count": 1253,
      "max": [
        1.0000001192092896,
        23.339252471923828,
        1.0000001192092896
      ],
      "min": [
        -1.0000001192092896,
        -4.102331638336182,
        -1.0000001192092896
      ],
      "type": "VEC3"
    },
    {
      "bufferView": 2,
      "byteOffset": 276444,
      "componentType": 5126,
      "count": 1253,
      "max": [
        1.0,
        1.0,
        1.0
      ],
      "min": [
        -1.0,
        -1.272322869283471e-08,
        -1.0
      ],
      "type": "VEC3"
    },
    {
      "bufferView": 1,
      "byteOffset": 87136,
      "componentType": 5126,
      "count": 1253,
      "max": [
        1.0000001192092896,
        1.0000001192092896
      ],
      "min": [
        0.0,
        0.5000000596046448
      ],
      "type": "VEC2"
    },
    {
      "bufferView": 0,
      "byteOffset": 235128,
      "componentType": 5125,
      "count": 5376,
      "type": "SCALAR"
    },
    {
      "bufferView": 2,
      "byteOffset": 291480,
      "componentType": 5126,
      "count": 8255,
      "max": [
        1.1044739484786987,
        1.0,
        1.1044739484786987
      ],
      "min": [
        -1.1044739484786987,
        -1.0,
        -1.1044739484786987
      ],
      "type": "VEC3"
    },
    {
      "bufferView": 2,
      "byteOffset": 390540,
      "componentType": 5126,
      "count": 8255,
      "max": [
        1.0,
        1.0,
        1.0
      ],
      "min": [
        -1.0,
        -1.0,
        -1.0
      ],
      "type": "VEC3"
    },
    {
      "bufferView": 1,
      "byteOffset": 97160,
      "componentType": 5126,
      "count": 8255,
      "max": [
        1.0000001192092896,
        1.0000001192092896
      ],
      "min": [
        0.0,
        0.01000000536441803
      ],
      "type": "VEC2"
    },
    {
      "bufferView": 0,
      "byteOffset": 256632,
      "componentType": 5125,
      "count": 47616,
      "type": "SCALAR"
    },
    {
      "bufferView": 2,
      "byteOffset": 489600,
      "componentType": 5126,
      "count": 206,
      "max": [
        1.563295602798462,
        1.6818482606595353e-08,
        2.3391058444976807
      ],
      "min": [
        -1.563295602798462,
        0.0,
        -1.0
      ],
      "type": "VEC3"
    },
    {
      "bufferView": 2,
      "byteOffset": 492072,
      "componentType": 5126,
      "count": 206,
      "max": [
        2.8748026181801833e-08,
        1.0,
        6.569978339143745e-09
      ],
      "min": [
        -2.874803506358603e-08,
        1.0,
        -5.309451989177205e-09
      ],
      "type": "VEC3"
    },
    {
      "bufferView": 1,
      "byteOffset": 163200,
      "componentType": 5126,
      "count": 206,
      "max": [
        0.0,
        0.0
      ],
      "min": [
        0.0,
        0.0
      ],
      "type": "VEC2"
    },
    {
      "bufferView": 0,
      "byteOffset": 447096,
      "componentType": 5125,
      "count": 816,
      "type": "SCALAR"
    },
    {
      "bufferView": 2,
      "byteOffset": 494544,
      "componentType": 5126,
      "count": 206,
      "max": [
        1.563295602798462,
        1.6818482606595353e-08,
        2.3391058444976807
      ],
      "min": [
        -1.563295602798462,
        0.0,
        -1.0
      ],
      "type": "VEC3"
    },
    {
      "bufferView": 2,
      "byteOffset": 497016,
      "componentType": 5126,
      "count": 206,
      "max": [
        2.8748026181801833e-08,
        1.0,
        6.569978339143745e-09
      ],
      "min": [
        -2.874803506358603e-08,
        1.0,
        -5.309451989177205e-09
      ],
      "type": "VEC3"
    },
    {
      "bufferView": 1,
      "byteOffset": 164848,
      "componentType": 5126,
      "count": 206,
      "max": [
        0.0,
        0.0
      ],
      "min": [
        0.0,
        0.0
      ],
      "type": "VEC2"
    },
    {
      "bufferView": 0,
      "byteOffset": 450360,
      "componentType": 5125,
      "count": 816,
      "type": "SCALAR"
    }
  ],
  "asset": {
    "extras": {
      "author": "Kabir (https://sketchfab.com/slothisticated)",
      "license": "CC-BY-4.0 (http://creativecommons.org/licenses/by/4.0/)",
      "source": "https://sketchfab.com/3d-models/dart-96aa56cca1ba45a9be5c43c07e696a0a",
      "title": "Dart"
    },
    "generator": "Sketchfab-15.24.0",
    "version": "2.0"
  },
  "bufferViews": [
    {
      "buffer": 0,
      "byteLength": 453624,
      "name": "floatBufferViews",
      "target": 34963
    },
    {
      "buffer": 0,
      "byteLength": 166496,
      "byteOffset": 453624,
      "byteStride": 8,
      "name": "floatBufferViews",
      "target": 34962
    },
    {
      "buffer": 0,
      "byteLength": 499488,
      "byteOffset": 620120,
      "byteStride": 12,
      "name": "floatBufferViews",
      "target": 34962
    }
  ],
  "buffers": [
    {
      "byteLength": 1119608,
      "uri": "scene.bin"
    }
  ],
  "materials": [
    {
      "doubleSided": true,
      "name": "Material.002",
      "pbrMetallicRoughness": {
        "baseColorFactor": [
          0.0,
          0.0,
          0.0,
          1.0
        ],
        "metallicFactor": 0.0,
        "roughnessFactor": 0.5
      }
    },
    {
      "doubleSided": true,
      "name": "Material.001",
      "pbrMetallicRoughness": {
        "baseColorFactor": [
          0.423639,
          0.281373,
          0.0964874,
          1.0
        ],
        "roughnessFactor": 0.516364
      }
    },
    {
      "doubleSided": true,
      "name": "Material.003",
      "pbrMetallicRoughness": {
        "baseColorFactor": [
          0.8,
          0.00179071,
          0.0,
          1.0
        ],
        "metallicFactor": 0.16,
        "roughnessFactor": 0.0
      }
    },
    {
      "doubleSided": true,
      "name": "Material.004",
      "pbrMetallicRoughness": {
        "baseColorFactor": [
          0.00622377,
          0.0,
          0.8,
          1.0
        ],
        "metallicFactor": 0.189091,
        "roughnessFactor": 0.0
      }
    }
  ],
  "meshes": [
    {
      "name": "Object_0",
      "primitives": [
        {
          "attributes": {
            "NORMAL": 1,
            "POSITION": 0,
            "TEXCOORD_0": 2
          },
          "indices": 3,
          "material": 0,
          "mode": 4
        }
      ]
    },
    {
      "name": "Object_1",
      "primitives": [
        {
          "attributes": {
            "NORMAL": 5,
            "POSITION": 4,
            "TEXCOORD_0": 6
          },
          "indices": 7,
          "material": 1,
          "mode": 4
        }
      ]
    },
    {
      "name": "Object_2",
      "primitives": [
        {
          "attributes": {
            "NORMAL": 9,
            "POSITION": 8,
            "TEXCOORD_0": 10
          },
          "indices": 11,
          "material": 1,
          "mode": 4
        }
      ]
    },
    {
      "name": "Object_3",
      "primitives": [
        {
          "attributes": {
            "NORMAL": 13,
            "POSITION": 12,
            "TEXCOORD_0": 14
          },
          "indices": 15,
          "material": 2,
          "mode": 4
        }
      ]
    },
    {
      "name": "Object_4",
      "primitives": [
        {
          "attributes": {
            "NORMAL": 17,
            "POSITION": 16,
            "TEXCOORD_0": 18
          },
          "indices": 19,
          "material": 2,
          "mode": 4
        }
      ]
    },
    {
      "name": "Object_5",
      "primitives": [
        {
          "attributes": {
            "NORMAL": 21,
            "POSITION": 20,
            "TEXCOORD_0": 22
          },
          "indices": 23,
          "material": 0,
          "mode": 4
        }
      ]
    },
    {
      "name": "Object_6",
      "primitives": [
        {
          "attributes": {
            "NORMAL": 25,
            "POSITION": 24,
            "TEXCOORD_0": 26
          },
          "indices": 27,
          "material": 1,
          "mode": 4
        }
      ]
    },
    {
      "name": "Object_7",
      "primitives": [
        {
          "attributes": {
            "NORMAL": 29,
            "POSITION": 28,
            "TEXCOORD_0": 30
          },
          "indices": 31,
          "material": 1,
          "mode": 4
        }
      ]
    },
    {
      "name": "Object_8",
      "primitives": [
        {
          "attributes": {
            "NORMAL": 33,
            "POSITION": 32,
            "TEXCOORD_0": 34
          },
          "indices": 35,
          "material": 3,
          "mode": 4
        }
      ]
    },
    {
      "name": "Object_9",
      "primitives": [
        {
          "attributes": {
            "NORMAL": 37,
            "POSITION": 36,
            "TEXCOORD_0": 38
          },
          "indices": 39,
          "material": 3,
          "mode": 4
        }
      ]
    }
  ],
  "nodes": [
    {
      "children": [
        1
      ],
      "matrix": [
        1.0,
        0.0,
        0.0,
        0.0,
        0.0,
        2.220446049250313e-16,
        -1.0,
        0.0,
        0.0,
        1.0,
        2.220446049250313e-16,
        0.0,
        0.0,
        0.0,
        0.0,
        1.0
      ],
      "name": "Sketchfab_model"
    },
    {
      "children": [
        2
      ],
      "name": "root"
    },
    {
      "children": [
        3,
        9,
        13,
        19
      ],
      "matrix": [
        1.0,
        0.0,
        0.0,
        0.0,
        0.0,
        2.220446049250313e-16,
        1.0,
        0.0,
        0.0,
        -1.0,
        2.220446049250313e-16,
        0.0,
        0.0,
        0.0,
        0.0,
        1.0
      ],
      "name": "GLTF_SceneRootNode"
    },
    {
      "children": [
        4,
        5,
        7
      ],
      "matrix": [
        0.3971846103668213,
        0.0,
        0.0,
        0.0,
        0.0,
        5.73104190826416,
        0.0,
        0.0,
        0.0,
        0.0,
        0.3971846103668213,
        0.0,
        0.0,
        -3.613541841506958,
        0.0,
        1.0
      ],
      "name": "Cylinder.002_4"
    },
    {
      "mesh": 0,
      "name": "Object_4"
    },
    {
      "children": [
        6
      ],
      "matrix": [
        0.19844456017017365,
        0.0,
        0.0,
        0.0,
        0.0,
        0.01736767590045929,
        0.0,
        0.0,
        0.0,
        0.0,
        0.19844456017017365,
        0.0,
        0.0,
        1.876777172088623,
        0.0,
        1.0
      ],
      "name": "Cylinder_2"
    },
    {
      "mesh": 1,
      "name": "Object_6"
    },
    {
      "children": [
        8
      ],
      "matrix": [
        1.0980851650238037,
        0.0,
        0.0,
        0.0,
        0.0,
        0.4520604610443115,
        0.0,
        0.0,
        0.0,
        0.0,
        1.0980851650238037,
        0.0,
        0.0,
        1.426313042640686,
        0.0,
        1.0
      ],
      "name": "Cylinder.001_3"
    },
    {
      "mesh": 2,
      "name": "Object_8"
    },
    {
      "children": [
        10,
        11
      ],
      "matrix": [
        -5.9421660036917956e-08,
        -0.0061304876122640906,
        0.9999812083842539,
        0.0,
        0.9999999999999964,
        5.9421660036917956e-08,
        5.978706729692362e-08,
        0.0,
        -5.978706724141247e-08,
        0.9999812083842538,
        0.006130487612260538,
        0.0,
        0.0,
        -9.017528533935547,
        0.0,
        1.0
      ],
      "name": "Circle.001_6"
    },
    {
      "mesh": 3,
      "name": "Object_10"
    },
    {
      "children": [
        12
      ],
      "matrix": [
        0.0,
        1.0,
        0.0,
        0.0,
        -1.0,
        0.0,
        0.0,
        0.0,
        0.0,
        0.0,
        1.0,
        0.0,
        0.0,
        0.0,
        0.0,
        1.0
      ],
      "name": "Circle_5"
    },
    {
      "mesh": 4,
      "name": "Object_12"
    },
    {
      "children": [
        14,
        15,
        17
      ],
      "matrix": [
        0.3971846103668213,
        0.0,
        0.0,
        0.0,
        0.0,
        5.73104190826416,
        0.0,
        0.0,
        0.0,
        0.0,
        0.3971846103668213,
        0.0,
        -2.411792755126953,
        -3.4665932655334473,
        -3.4778289794921875,
        1.0
      ],
      "name": "Cylinder.005_9"
    },
    {
      "mesh": 5,
      "name": "Object_14"
    },
    {
      "children": [
        16
      ],
      "matrix": [
        0.19844456017017365,
        0.0,
        0.0,
        0.0,
        0.0,
        0.01736767590045929,
        0.0,
        0.0,
        0.0,
        0.0,
        0.19844456017017365,
        0.0,
        0.0,
        1.8767770528793335,
        0.0,
        1.0
      ],
      "name": "Cylinder.003_7"
    },
    {
      "mesh": 6,
      "name": "Object_16"
    },
    {
      "children": [
        18
      ],
      "matrix": [
        1.0980851650238037,
        0.0,
        0.0,
        0.0,
        0.0,
        0.4520604610443115,
        0.0,
        0.0,
        0.0,
        0.0,
        1.0980851650238037,
        0.0,
        0.0,
        1.4263129234313965,
        0.0,
        1.0
      ],
      "name": "Cylinder.004_8"
    },
    {
      "mesh": 7,
      "name": "Object_18"
    },
    {
      "children": [
        20,
        21
      ],
      "matrix": [
        -5.9421660036917956e-08,
        -0.0061304876122640906,
        0.9999812083842539,
        0.0,
        0.9999999999999964,
        5.9421660036917956e-08,
        5.978706729692362e-08,
        0.0,
        -5.978706724141247e-08,
        0.9999812083842538,
        0.006130487612260538,
        0.0,
        -2.411792755126953,
        -8.870579719543457,
        -3.4778289794921875,
        1.0
      ],
      "name": "Circle.003_11"
    },
    {
      "mesh": 8,
      "name": "Object_20"
    },
    {
      "children": [
        22
      ],
      "matrix": [
        0.0,
        1.0,
        0.0,
        0.0,
        -1.0,
        0.0,
        0.0,
        0.0,
        0.0,
        0.0,
        1.0,
        0.0,
        0.0,
        0.0,
        0.0,
        1.0
      ],
      "name": "Circle.002_10"
    },
    {
      "mesh": 9,
      "name": "Object_22"
    }
  ],
  "scene": 0,
  "scenes": [
    {
      "name": "Sketchfab_Scene",
      "nodes": [
        0
      ]
    }
  ]
}
