{
	"asset":{
		"generator":"Khronos glTF Blender I/O v3.5.30",
		"version":"2.0"
	},
	"scene":0,
	"scenes":[
		{
			"name":"Scene",
			"nodes":[
				22
			]
		}
	],
	"nodes":[
		{
			"mesh":0,
			"name":"Object_12"
		},
		{
			"children":[
				0
			],
			"name":"Circle_5",
			"rotation":[
				0,
				0,
				0.7071068286895752,
				0.7071067094802856
			]
		},
		{
			"mesh":1,
			"name":"Object_10"
		},
		{
			"children":[
				1,
				2
			],
			"name":"Circle.001_6",
			"rotation":[
				-0.49846506118774414,
				-0.4984651207923889,
				-0.5015303492546082,
				0.5015302300453186
			],
			"translation":[
				0,
				-9.01752758026123,
				0
			]
		},
		{
			"mesh":2,
			"name":"Object_22"
		},
		{
			"children":[
				4
			],
			"name":"Circle.002_10",
			"rotation":[
				0,
				0,
				0.7071068286895752,
				0.7071067094802856
			]
		},
		{
			"mesh":3,
			"name":"Object_20"
		},
		{
			"children":[
				5,
				6
			],
			"name":"Circle.003_11",
			"rotation":[
				-0.49846506118774414,
				-0.4984651207923889,
				-0.5015303492546082,
				0.5015302300453186
			],
			"translation":[
				-2.4117929935455322,
				-8.870580673217773,
				-3.4778285026550293
			]
		},
		{
			"mesh":4,
			"name":"Object_8"
		},
		{
			"children":[
				8
			],
			"name":"Cylinder.001_3",
			"scale":[
				1.0980851650238037,
				0.4520604610443115,
				1.0980851650238037
			],
			"translation":[
				0,
				1.426313042640686,
				0
			]
		},
		{
			"mesh":5,
			"name":"Object_6",
			"translation":[
				0,
				9.357929229736328e-06,
				0
			]
		},
		{
			"children":[
				10
			],
			"name":"Cylinder_2",
			"scale":[
				0.19844456017017365,
				0.01736767776310444,
				0.19844457507133484
			],
			"translation":[
				0,
				1.8767772912979126,
				0
			]
		},
		{
			"mesh":6,
			"name":"Object_4"
		},
		{
			"children":[
				9,
				11,
				12
			],
			"name":"Cylinder.002_4",
			"scale":[
				0.3971846103668213,
				5.731042385101318,
				0.3971845805644989
			],
			"translation":[
				0,
				-3.613541841506958,
				0
			]
		},
		{
			"mesh":7,
			"name":"Object_16",
			"translation":[
				0,
				5.245208740234375e-06,
				3.0994415283203125e-06
			]
		},
		{
			"children":[
				14
			],
			"name":"Cylinder.003_7",
			"scale":[
				0.19844456017017365,
				0.01736767776310444,
				0.19844457507133484
			],
			"translation":[
				0,
				1.876777172088623,
				0
			]
		},
		{
			"mesh":8,
			"name":"Object_18"
		},
		{
			"children":[
				16
			],
			"name":"Cylinder.004_8",
			"scale":[
				1.0980851650238037,
				0.4520604610443115,
				1.0980851650238037
			],
			"translation":[
				0,
				1.426313042640686,
				0
			]
		},
		{
			"mesh":9,
			"name":"Object_14"
		},
		{
			"children":[
				15,
				17,
				18
			],
			"name":"Cylinder.005_9",
			"scale":[
				0.3971846103668213,
				5.731042385101318,
				0.3971845805644989
			],
			"translation":[
				-2.4117929935455322,
				-3.466593027114868,
				-3.4778287410736084
			]
		},
		{
			"children":[
				3,
				7,
				13,
				19
			],
			"name":"GLTF_SceneRootNode",
			"rotation":[
				0.7071068286895752,
				0,
				0,
				0.7071067094802856
			]
		},
		{
			"children":[
				20
			],
			"name":"root"
		},
		{
			"children":[
				21
			],
			"name":"Sketchfab_model",
			"rotation":[
				-0.6013014912605286,
				-0.03652514889836311,
				0.04839547351002693,
				0.7967184782028198
			],
			"translation":[
				0.38398313522338867,
				0.2401576042175293,
				-0.9171810150146484
			]
		}
	],
	"materials":[
		{
			"doubleSided":true,
			"name":"Material.003",
			"pbrMetallicRoughness":{
				"baseColorFactor":[
					0.800000011920929,
					0.0017907100263983011,
					0,
					1
				],
				"metallicFactor":0.1599999964237213,
				"roughnessFactor":0
			}
		},
		{
			"doubleSided":true,
			"name":"Material.004",
			"pbrMetallicRoughness":{
				"baseColorFactor":[
					0.0062237698584795,
					0,
					0.800000011920929,
					1
				],
				"metallicFactor":0.18909099698066711,
				"roughnessFactor":0
			}
		},
		{
			"doubleSided":true,
			"name":"Material.001",
			"pbrMetallicRoughness":{
				"baseColorFactor":[
					0.4236389994621277,
					0.281372994184494,
					0.09648740291595459,
					1
				],
				"roughnessFactor":0.5163639783859253
			}
		},
		{
			"doubleSided":true,
			"name":"Material.002",
			"pbrMetallicRoughness":{
				"baseColorFactor":[
					0,
					0,
					0,
					1
				],
				"metallicFactor":0,
				"roughnessFactor":0.5
			}
		}
	],
	"meshes":[
		{
			"name":"Object_4",
			"primitives":[
				{
					"attributes":{
						"POSITION":0,
						"TEXCOORD_0":1,
						"NORMAL":2
					},
					"indices":3,
					"material":0
				}
			]
		},
		{
			"name":"Object_3",
			"primitives":[
				{
					"attributes":{
						"POSITION":4,
						"TEXCOORD_0":5,
						"NORMAL":6
					},
					"indices":3,
					"material":0
				}
			]
		},
		{
			"name":"Object_9",
			"primitives":[
				{
					"attributes":{
						"POSITION":7,
						"TEXCOORD_0":8,
						"NORMAL":9
					},
					"indices":3,
					"material":1
				}
			]
		},
		{
			"name":"Object_8",
			"primitives":[
				{
					"attributes":{
						"POSITION":10,
						"TEXCOORD_0":11,
						"NORMAL":12
					},
					"indices":3,
					"material":1
				}
			]
		},
		{
			"name":"Object_2",
			"primitives":[
				{
					"attributes":{
						"POSITION":13,
						"TEXCOORD_0":14,
						"NORMAL":15
					},
					"indices":16,
					"material":2
				}
			]
		},
		{
			"name":"Object_1",
			"primitives":[
				{
					"attributes":{
						"POSITION":17,
						"TEXCOORD_0":18,
						"NORMAL":19
					},
					"indices":20,
					"material":2
				}
			]
		},
		{
			"name":"Object_0",
			"primitives":[
				{
					"attributes":{
						"POSITION":21,
						"TEXCOORD_0":22,
						"NORMAL":23
					},
					"indices":24,
					"material":3
				}
			]
		},
		{
			"name":"Object_6",
			"primitives":[
				{
					"attributes":{
						"POSITION":25,
						"TEXCOORD_0":26,
						"NORMAL":27
					},
					"indices":20,
					"material":2
				}
			]
		},
		{
			"name":"Object_7",
			"primitives":[
				{
					"attributes":{
						"POSITION":28,
						"TEXCOORD_0":29,
						"NORMAL":30
					},
					"indices":16,
					"material":2
				}
			]
		},
		{
			"name":"Object_5",
			"primitives":[
				{
					"attributes":{
						"POSITION":31,
						"TEXCOORD_0":32,
						"NORMAL":33
					},
					"indices":24,
					"material":3
				}
			]
		}
	],
	"accessors":[
		{
			"bufferView":0,
			"componentType":5126,
			"count":206,
			"max":[
				1.563295602798462,
				1.6818482606595353e-08,
				2.3391058444976807
			],
			"min":[
				-1.563295602798462,
				0,
				-1
			],
			"type":"VEC3"
		},
		{
			"bufferView":1,
			"componentType":5126,
			"count":206,
			"type":"VEC2"
		},
		{
			"bufferView":2,
			"componentType":5126,
			"count":206,
			"type":"VEC3"
		},
		{
			"bufferView":3,
			"componentType":5123,
			"count":816,
			"type":"SCALAR"
		},
		{
			"bufferView":4,
			"componentType":5126,
			"count":206,
			"max":[
				1.563295602798462,
				1.6818482606595353e-08,
				2.3391058444976807
			],
			"min":[
				-1.563295602798462,
				0,
				-1
			],
			"type":"VEC3"
		},
		{
			"bufferView":5,
			"componentType":5126,
			"count":206,
			"type":"VEC2"
		},
		{
			"bufferView":6,
			"componentType":5126,
			"count":206,
			"type":"VEC3"
		},
		{
			"bufferView":7,
			"componentType":5126,
			"count":206,
			"max":[
				1.563295602798462,
				1.6818482606595353e-08,
				2.3391058444976807
			],
			"min":[
				-1.563295602798462,
				0,
				-1
			],
			"type":"VEC3"
		},
		{
			"bufferView":8,
			"componentType":5126,
			"count":206,
			"type":"VEC2"
		},
		{
			"bufferView":9,
			"componentType":5126,
			"count":206,
			"type":"VEC3"
		},
		{
			"bufferView":10,
			"componentType":5126,
			"count":206,
			"max":[
				1.563295602798462,
				1.6818482606595353e-08,
				2.3391058444976807
			],
			"min":[
				-1.563295602798462,
				0,
				-1
			],
			"type":"VEC3"
		},
		{
			"bufferView":11,
			"componentType":5126,
			"count":206,
			"type":"VEC2"
		},
		{
			"bufferView":12,
			"componentType":5126,
			"count":206,
			"type":"VEC3"
		},
		{
			"bufferView":13,
			"componentType":5126,
			"count":8387,
			"max":[
				1.1044739484786987,
				1,
				1.1044739484786987
			],
			"min":[
				-1.1044739484786987,
				-1,
				-1.1044739484786987
			],
			"type":"VEC3"
		},
		{
			"bufferView":14,
			"componentType":5126,
			"count":8387,
			"type":"VEC2"
		},
		{
			"bufferView":15,
			"componentType":5126,
			"count":8387,
			"type":"VEC3"
		},
		{
			"bufferView":16,
			"componentType":5123,
			"count":47616,
			"type":"SCALAR"
		},
		{
			"bufferView":17,
			"componentType":5126,
			"count":1308,
			"max":[
				1.0000001192092896,
				23.339252471923828,
				1.0000001192092896
			],
			"min":[
				-1.0000001192092896,
				-4.102331638336182,
				-1.0000001192092896
			],
			"type":"VEC3"
		},
		{
			"bufferView":18,
			"componentType":5126,
			"count":1308,
			"type":"VEC2"
		},
		{
			"bufferView":19,
			"componentType":5126,
			"count":1308,
			"type":"VEC3"
		},
		{
			"bufferView":20,
			"componentType":5123,
			"count":5376,
			"type":"SCALAR"
		},
		{
			"bufferView":21,
			"componentType":5126,
			"count":486,
			"max":[
				1,
				1,
				1
			],
			"min":[
				-1,
				-0.7963491678237915,
				-1
			],
			"type":"VEC3"
		},
		{
			"bufferView":22,
			"componentType":5126,
			"count":486,
			"type":"VEC2"
		},
		{
			"bufferView":23,
			"componentType":5126,
			"count":486,
			"type":"VEC3"
		},
		{
			"bufferView":24,
			"componentType":5123,
			"count":2079,
			"type":"SCALAR"
		},
		{
			"bufferView":25,
			"componentType":5126,
			"count":1308,
			"max":[
				1.0000001192092896,
				23.339252471923828,
				1.0000001192092896
			],
			"min":[
				-1.0000001192092896,
				-4.102331638336182,
				-1.0000001192092896
			],
			"type":"VEC3"
		},
		{
			"bufferView":26,
			"componentType":5126,
			"count":1308,
			"type":"VEC2"
		},
		{
			"bufferView":27,
			"componentType":5126,
			"count":1308,
			"type":"VEC3"
		},
		{
			"bufferView":28,
			"componentType":5126,
			"count":8387,
			"max":[
				1.1044739484786987,
				1,
				1.1044739484786987
			],
			"min":[
				-1.1044739484786987,
				-1,
				-1.1044739484786987
			],
			"type":"VEC3"
		},
		{
			"bufferView":29,
			"componentType":5126,
			"count":8387,
			"type":"VEC2"
		},
		{
			"bufferView":30,
			"componentType":5126,
			"count":8387,
			"type":"VEC3"
		},
		{
			"bufferView":31,
			"componentType":5126,
			"count":486,
			"max":[
				1,
				1,
				1
			],
			"min":[
				-1,
				-0.7963491678237915,
				-1
			],
			"type":"VEC3"
		},
		{
			"bufferView":32,
			"componentType":5126,
			"count":486,
			"type":"VEC2"
		},
		{
			"bufferView":33,
			"componentType":5126,
			"count":486,
			"type":"VEC3"
		}
	],
	"bufferViews":[
		{
			"buffer":0,
			"byteLength":2472,
			"byteOffset":0,
			"target":34962
		},
		{
			"buffer":0,
			"byteLength":1648,
			"byteOffset":2472,
			"target":34962
		},
		{
			"buffer":0,
			"byteLength":2472,
			"byteOffset":4120,
			"target":34962
		},
		{
			"buffer":0,
			"byteLength":1632,
			"byteOffset":6592,
			"target":34963
		},
		{
			"buffer":0,
			"byteLength":2472,
			"byteOffset":8224,
			"target":34962
		},
		{
			"buffer":0,
			"byteLength":1648,
			"byteOffset":10696,
			"target":34962
		},
		{
			"buffer":0,
			"byteLength":2472,
			"byteOffset":12344,
			"target":34962
		},
		{
			"buffer":0,
			"byteLength":2472,
			"byteOffset":14816,
			"target":34962
		},
		{
			"buffer":0,
			"byteLength":1648,
			"byteOffset":17288,
			"target":34962
		},
		{
			"buffer":0,
			"byteLength":2472,
			"byteOffset":18936,
			"target":34962
		},
		{
			"buffer":0,
			"byteLength":2472,
			"byteOffset":21408,
			"target":34962
		},
		{
			"buffer":0,
			"byteLength":1648,
			"byteOffset":23880,
			"target":34962
		},
		{
			"buffer":0,
			"byteLength":2472,
			"byteOffset":25528,
			"target":34962
		},
		{
			"buffer":0,
			"byteLength":100644,
			"byteOffset":28000,
			"target":34962
		},
		{
			"buffer":0,
			"byteLength":67096,
			"byteOffset":128644,
			"target":34962
		},
		{
			"buffer":0,
			"byteLength":100644,
			"byteOffset":195740,
			"target":34962
		},
		{
			"buffer":0,
			"byteLength":95232,
			"byteOffset":296384,
			"target":34963
		},
		{
			"buffer":0,
			"byteLength":15696,
			"byteOffset":391616,
			"target":34962
		},
		{
			"buffer":0,
			"byteLength":10464,
			"byteOffset":407312,
			"target":34962
		},
		{
			"buffer":0,
			"byteLength":15696,
			"byteOffset":417776,
			"target":34962
		},
		{
			"buffer":0,
			"byteLength":10752,
			"byteOffset":433472,
			"target":34963
		},
		{
			"buffer":0,
			"byteLength":5832,
			"byteOffset":444224,
			"target":34962
		},
		{
			"buffer":0,
			"byteLength":3888,
			"byteOffset":450056,
			"target":34962
		},
		{
			"buffer":0,
			"byteLength":5832,
			"byteOffset":453944,
			"target":34962
		},
		{
			"buffer":0,
			"byteLength":4158,
			"byteOffset":459776,
			"target":34963
		},
		{
			"buffer":0,
			"byteLength":15696,
			"byteOffset":463936,
			"target":34962
		},
		{
			"buffer":0,
			"byteLength":10464,
			"byteOffset":479632,
			"target":34962
		},
		{
			"buffer":0,
			"byteLength":15696,
			"byteOffset":490096,
			"target":34962
		},
		{
			"buffer":0,
			"byteLength":100644,
			"byteOffset":505792,
			"target":34962
		},
		{
			"buffer":0,
			"byteLength":67096,
			"byteOffset":606436,
			"target":34962
		},
		{
			"buffer":0,
			"byteLength":100644,
			"byteOffset":673532,
			"target":34962
		},
		{
			"buffer":0,
			"byteLength":5832,
			"byteOffset":774176,
			"target":34962
		},
		{
			"buffer":0,
			"byteLength":3888,
			"byteOffset":780008,
			"target":34962
		},
		{
			"buffer":0,
			"byteLength":5832,
			"byteOffset":783896,
			"target":34962
		}
	],
	"buffers":[
		{
			"byteLength":789728,
			"uri":"data:application/octet-stream;base64,"
		}
	]
}
